  0
SECTION
  2
HEADER
  9
$ACADVER
  1
AC1014
  9
$HANDSEED
  5
FFFF
  9
$MEASUREMENT
 70
     1
  0
ENDSEC
  0
SECTION
  2
TABLES
  0
TABLE
  2
VPORT
  5
8
330
0
100
AcDbSymbolTable
 70
     4
  0
VPORT
  5
2E
330
8
100
AcDbSymbolTableRecord
100
AcDbViewportTableRecord
  2
*ACTIVE
 70
     0
 10
0.0
 20
0.0
 11
1.0
 21
1.0
 12
210.0
 22
148.5
 13
0.0
 23
0.0
 14
10.0
 24
10.0
 15
10.0
 25
10.0
 16
0.0
 26
0.0
 36
1.0
 17
0.0
 27
0.0
 37
0.0
 40
341.0
 41
1.24
 42
50.0
 43
0.0
 44
0.0
 50
0.0
 51
0.0
 71
     0
 72
   100
 73
     1
 74
     3
 75
     0
 76
     0
 77
     0
 78
     0
  0
ENDTAB
  0
TABLE
  2
LTYPE
  5
5
330
0
100
AcDbSymbolTable
 70
     1
  0
LTYPE
  5
14
330
5
100
AcDbSymbolTableRecord
100
AcDbLinetypeTableRecord
  2
BYBLOCK
 70
     0
  3

 72
    65
 73
     0
 40
0.0
  0
LTYPE
  5
15
330
5
100
AcDbSymbolTableRecord
100
AcDbLinetypeTableRecord
  2
BYLAYER
 70
     0
  3

 72
    65
 73
     0
 40
0.0
  0
LTYPE
  5
16
330
5
100
AcDbSymbolTableRecord
100
AcDbLinetypeTableRecord
  2
CONTINUOUS
 70
     0
  3
Solid line
 72
    65
 73
     0
 40
0.0
  0
ENDTAB
  0
TABLE
  2
LAYER
  5
2
100
AcDbSymbolTable
 70
2
  0
LAYER
  5
50
100
AcDbSymbolTableRecord
100
AcDbLayerTableRecord
  2
0
 70
0
  6
CONTINUOUS
  0
LAYER
  5
51
100
AcDbSymbolTableRecord
100
AcDbLayerTableRecord
  2
Layer_1
 70
0
  6
CONTINUOUS
  0
ENDTAB
  0
TABLE
  2
STYLE
  5
3
330
0
100
AcDbSymbolTable
 70
     1
  0
STYLE
  5
11
330
3
100
AcDbSymbolTableRecord
100
AcDbTextStyleTableRecord
  2
STANDARD
 70
     0
 40
0.0
 41
1.0
 50
0.0
 71
     0
 42
2.5
  3
txt
  4

  0
ENDTAB
  0
TABLE
  2
VIEW
  5
6
330
0
100
AcDbSymbolTable
 70
     0
  0
ENDTAB
  0
TABLE
  2
UCS
  5
7
330
0
100
AcDbSymbolTable
 70
     0
  0
ENDTAB
  0
TABLE
  2
APPID
  5
9
330
0
100
AcDbSymbolTable
 70
     2
  0
APPID
  5
12
330
9
100
AcDbSymbolTableRecord
100
AcDbRegAppTableRecord
  2
ACAD
 70
     0
  0
ENDTAB
  0
TABLE
  2
DIMSTYLE
  5
A
330
0
100
AcDbSymbolTable
 70
     1
  0
DIMSTYLE
105
27
330
A
100
AcDbSymbolTableRecord
100
AcDbDimStyleTableRecord
  2
ISO-25
 70
     0
  3

  4

  5

  6

  7

 40
1.0
 41
2.5
 42
0.625
 43
3.75
 44
1.25
 45
0.0
 46
0.0
 47
0.0
 48
0.0
140
2.5
141
2.5
142
0.0
143
0.03937007874016
144
1.0
145
0.0
146
1.0
147
0.625
 71
     0
 72
     0
 73
     0
 74
     0
 75
     0
 76
     0
 77
     1
 78
     8
170
     0
171
     3
172
     1
173
     0
174
     0
175
     0
176
     0
177
     0
178
     0
270
     2
271
     2
272
     2
273
     2
274
     3
340
11
275
     0
280
     0
281
     0
282
     0
283
     0
284
     8
285
     0
286
     0
287
     3
288
     0
  0
ENDTAB
  0
TABLE
  2
BLOCK_RECORD
  5
1
330
0
100
AcDbSymbolTable
 70
     1
  0
BLOCK_RECORD
  5
1F
330
1
100
AcDbSymbolTableRecord
100
AcDbBlockTableRecord
  2
*MODEL_SPACE
  0
BLOCK_RECORD
  5
1B
330
1
100
AcDbSymbolTableRecord
100
AcDbBlockTableRecord
  2
*PAPER_SPACE
  0
ENDTAB
  0
ENDSEC
  0
SECTION
  2
BLOCKS
  0
BLOCK
  5
20
330
1F
100
AcDbEntity
  8
0
100
AcDbBlockBegin
  2
*MODEL_SPACE
 70
     0
 10
0.0
 20
0.0
 30
0.0
  3
*MODEL_SPACE
  1

  0
ENDBLK
  5
21
330
1F
100
AcDbEntity
  8
0
100
AcDbBlockEnd
  0
BLOCK
  5
1C
330
1B
100
AcDbEntity
 67
     1
  8
0
100
AcDbBlockBegin
  2
*PAPER_SPACE
  1

  0
ENDBLK
  5
1D
330
1B
100
AcDbEntity
 67
     1
  8
0
100
AcDbBlockEnd
  0
ENDSEC
  0
SECTION
  2
ENTITIES
  0
SPLINE
  5
100
100
AcDbEntity
  8
Layer_1
 62
7
100
AcDbSpline
 70
8
 71
3
 72
8
 73
4
 74
0
 40
0
 40
0
 40
0
 40
0
 40
1
 40
1
 40
1
 40
1
 10
277.529513
 20
293.744976
 30
0.0
 10
242.030750
 20
300.147987
 30
0.0
 10
217.684749
 20
320.670935
 30
0.0
 10
207.627752
 20
352.670088
 30
0.0
  0
SPLINE
  5
101
100
AcDbEntity
  8
Layer_1
 62
7
100
AcDbSpline
 70
8
 71
3
 72
8
 73
4
 74
0
 40
0
 40
0
 40
0
 40
0
 40
1
 40
1
 40
1
 40
1
 10
207.627752
 20
352.670088
 30
0.0
 10
203.810196
 20
364.816715
 30
0.0
 10
202.999779
 20
372.455915
 30
0.0
 10
203.502118
 20
391.559329
 30
0.0
  0
SPLINE
  5
102
100
AcDbEntity
  8
Layer_1
 62
7
100
AcDbSpline
 70
8
 71
3
 72
8
 73
4
 74
0
 40
0
 40
0
 40
0
 40
0
 40
1
 40
1
 40
1
 40
1
 10
203.502118
 20
391.559329
 30
0.0
 10
203.889611
 20
406.295150
 30
0.0
 10
204.318337
 20
410.303509
 30
0.0
 10
206.318889
 20
417.894066
 30
0.0
  0
SPLINE
  5
103
100
AcDbEntity
  8
Layer_1
 62
7
100
AcDbSpline
 70
8
 71
3
 72
8
 73
4
 74
0
 40
0
 40
0
 40
0
 40
0
 40
1
 40
1
 40
1
 40
1
 10
206.318889
 20
417.894066
 30
0.0
 10
216.050936
 20
454.819833
 30
0.0
 10
243.757984
 20
479.478189
 30
0.0
 10
283.286472
 20
486.392598
 30
0.0
  0
SPLINE
  5
104
100
AcDbEntity
  8
Layer_1
 62
7
100
AcDbSpline
 70
8
 71
3
 72
8
 73
4
 74
0
 40
0
 40
0
 40
0
 40
0
 40
1
 40
1
 40
1
 40
1
 10
283.286472
 20
486.392598
 30
0.0
 10
293.957348
 20
488.259213
 30
0.0
 10
320.715326
 20
488.280954
 30
0.0
 10
332.113550
 20
486.432283
 30
0.0
  0
SPLINE
  5
105
100
AcDbEntity
  8
Layer_1
 62
7
100
AcDbSpline
 70
8
 71
3
 72
8
 73
4
 74
0
 40
0
 40
0
 40
0
 40
0
 40
1
 40
1
 40
1
 40
1
 10
332.113550
 20
486.432283
 30
0.0
 10
336.766847
 20
485.677559
 30
0.0
 10
343.927502
 20
484.000724
 30
0.0
 10
348.026145
 20
482.705972
 30
0.0
  0
SPLINE
  5
106
100
AcDbEntity
  8
Layer_1
 62
7
100
AcDbSpline
 70
8
 71
3
 72
8
 73
4
 74
0
 40
0
 40
0
 40
0
 40
0
 40
1
 40
1
 40
1
 40
1
 10
348.026145
 20
482.705972
 30
0.0
 10
354.211285
 20
480.752079
 30
0.0
 10
355.478202
 20
480.024935
 30
0.0
 10
355.478202
 20
478.428832
 30
0.0
  0
SPLINE
  5
107
100
AcDbEntity
  8
Layer_1
 62
7
100
AcDbSpline
 70
8
 71
3
 72
8
 73
4
 74
0
 40
0
 40
0
 40
0
 40
0
 40
1
 40
1
 40
1
 40
1
 10
355.478202
 20
478.428832
 30
0.0
 10
355.478202
 20
474.446353
 30
0.0
 10
346.709112
 20
442.373811
 30
0.0
 10
345.492624
 20
441.907002
 30
0.0
  0
SPLINE
  5
108
100
AcDbEntity
  8
Layer_1
 62
7
100
AcDbSpline
 70
8
 71
3
 72
8
 73
4
 74
0
 40
0
 40
0
 40
0
 40
0
 40
1
 40
1
 40
1
 40
1
 10
345.492624
 20
441.907002
 30
0.0
 10
344.808283
 20
441.644513
 30
0.0
 10
340.029524
 20
442.728794
 30
0.0
 10
334.873162
 20
444.316762
 30
0.0
  0
SPLINE
  5
109
100
AcDbEntity
  8
Layer_1
 62
7
100
AcDbSpline
 70
8
 71
3
 72
8
 73
4
 74
0
 40
0
 40
0
 40
0
 40
0
 40
1
 40
1
 40
1
 40
1
 10
334.873162
 20
444.316762
 30
0.0
 10
322.315824
 20
448.183984
 30
0.0
 10
311.405329
 20
449.433128
 30
0.0
 10
301.675294
 20
448.117625
 30
0.0
  0
SPLINE
  5
10a
100
AcDbEntity
  8
Layer_1
 62
7
100
AcDbSpline
 70
8
 71
3
 72
8
 73
4
 74
0
 40
0
 40
0
 40
0
 40
0
 40
1
 40
1
 40
1
 40
1
 10
301.675294
 20
448.117625
 30
0.0
 10
277.597261
 20
444.862318
 30
0.0
 10
262.285413
 20
432.372643
 30
0.0
 10
254.776833
 20
409.863203
 30
0.0
  0
SPLINE
  5
10b
100
AcDbEntity
  8
Layer_1
 62
7
100
AcDbSpline
 70
8
 71
3
 72
8
 73
4
 74
0
 40
0
 40
0
 40
0
 40
0
 40
1
 40
1
 40
1
 40
1
 10
254.776833
 20
409.863203
 30
0.0
 10
252.899518
 20
404.235298
 30
0.0
 10
252.624359
 20
401.628643
 30
0.0
 10
252.634564
 20
389.568869
 30
0.0
  0
SPLINE
  5
10c
100
AcDbEntity
  8
Layer_1
 62
7
100
AcDbSpline
 70
8
 71
3
 72
8
 73
4
 74
0
 40
0
 40
0
 40
0
 40
0
 40
1
 40
1
 40
1
 40
1
 10
252.634564
 20
389.568869
 30
0.0
 10
252.645902
 20
376.791647
 30
0.0
 10
252.844328
 20
375.169266
 30
0.0
 10
255.230405
 20
368.387235
 30
0.0
  0
SPLINE
  5
10d
100
AcDbEntity
  8
Layer_1
 62
7
100
AcDbSpline
 70
8
 71
3
 72
8
 73
4
 74
0
 40
0
 40
0
 40
0
 40
0
 40
1
 40
1
 40
1
 40
1
 10
255.230405
 20
368.387235
 30
0.0
 10
258.261066
 20
359.773739
 30
0.0
 10
264.519482
 20
349.942252
 30
0.0
 10
269.972632
 20
345.228406
 30
0.0
  0
SPLINE
  5
10e
100
AcDbEntity
  8
Layer_1
 62
7
100
AcDbSpline
 70
8
 71
3
 72
8
 73
4
 74
0
 40
0
 40
0
 40
0
 40
0
 40
1
 40
1
 40
1
 40
1
 10
269.972632
 20
345.228406
 30
0.0
 10
285.466791
 20
331.834876
 30
0.0
 10
308.885357
 20
327.989594
 30
0.0
 10
333.338939
 20
334.823839
 30
0.0
  0
SPLINE
  5
10f
100
AcDbEntity
  8
Layer_1
 62
7
100
AcDbSpline
 70
8
 71
3
 72
8
 73
4
 74
0
 40
0
 40
0
 40
0
 40
0
 40
1
 40
1
 40
1
 40
1
 10
333.338939
 20
334.823839
 30
0.0
 10
337.144110
 20
335.887313
 30
0.0
 10
341.700860
 20
336.809310
 30
0.0
 10
343.465030
 20
336.872750
 30
0.0
  0
LWPOLYLINE
  5
110
100
AcDbEntity
  8
Layer_1
 62
7
100
AcDbPolyline
 90
8
 70
1
 10
62.132854
 20
265.496683
 30
0.0
 10
62.132854
 20
282.101159
 30
0.0
 10
288.599159
 20
282.101159
 30
0.0
 10
515.065465
 20
282.101159
 30
0.0
 10
515.065465
 20
265.496683
 30
0.0
 10
515.065465
 20
248.892236
 30
0.0
 10
288.599159
 20
248.892236
 30
0.0
 10
62.132854
 20
248.892236
 30
0.0
  0
SPLINE
  5
111
100
AcDbEntity
  8
Layer_1
 62
7
100
AcDbSpline
 70
8
 71
3
 72
8
 73
4
 74
0
 40
0
 40
0
 40
0
 40
0
 40
1
 40
1
 40
1
 40
1
 10
349.673216
 20
321.767376
 30
0.0
 10
351.323546
 20
313.395959
 30
0.0
 10
352.578359
 20
304.901830
 30
0.0
 10
352.461685
 20
302.891499
 30
0.0
  0
LWPOLYLINE
  5
112
100
AcDbEntity
  8
Layer_1
 62
7
100
AcDbPolyline
 90
3
 70
0
 10
343.465030
 20
336.872750
 30
0.0
 10
346.672602
 20
336.988120
 30
0.0
 10
349.673216
 20
321.767376
 30
0.0
  0
SPLINE
  5
113
100
AcDbEntity
  8
Layer_1
 62
7
100
AcDbSpline
 70
8
 71
3
 72
8
 73
4
 74
0
 40
0
 40
0
 40
0
 40
0
 40
1
 40
1
 40
1
 40
1
 10
345.665395
 20
297.179320
 30
0.0
 10
342.044050
 20
296.047928
 30
0.0
 10
334.726328
 20
294.475606
 30
0.0
 10
329.403770
 20
293.685279
 30
0.0
  0
SPLINE
  5
114
100
AcDbEntity
  8
Layer_1
 62
7
100
AcDbSpline
 70
8
 71
3
 72
8
 73
4
 74
0
 40
0
 40
0
 40
0
 40
0
 40
1
 40
1
 40
1
 40
1
 10
329.403770
 20
293.685279
 30
0.0
 10
316.978923
 20
291.840378
 30
0.0
 10
287.903452
 20
291.873855
 30
0.0
 10
277.529598
 20
293.745090
 30
0.0
  0
LWPOLYLINE
  5
115
100
AcDbEntity
  8
Layer_1
 62
7
100
AcDbPolyline
 90
3
 70
0
 10
352.461685
 20
302.891499
 30
0.0
 10
352.249654
 20
299.236394
 30
0.0
 10
345.665395
 20
297.179320
 30
0.0
  0
LWPOLYLINE
  5
116
100
AcDbEntity
  8
Layer_1
 62
7
100
AcDbPolyline
 90
2
 70
0
 10
277.529598
 20
293.745090
 30
0.0
 10
277.529513
 20
293.744976
 30
0.0
  0
LWPOLYLINE
  5
117
100
AcDbEntity
  8
Layer_1
 62
7
100
AcDbPolyline
 90
16
 70
1
 10
417.283682
 20
369.274535
 30
0.0
 10
417.283682
 20
444.455830
 30
0.0
 10
391.915757
 20
444.455830
 30
0.0
 10
366.547833
 20
444.455830
 30
0.0
 10
366.547833
 20
464.750164
 30
0.0
 10
366.547833
 20
485.044498
 30
0.0
 10
440.806649
 20
485.044498
 30
0.0
 10
515.065465
 20
485.044498
 30
0.0
 10
515.065465
 20
464.750164
 30
0.0
 10
515.065465
 20
444.455830
 30
0.0
 10
489.236315
 20
444.455830
 30
0.0
 10
463.407165
 20
444.455830
 30
0.0
 10
463.407165
 20
369.274535
 30
0.0
 10
463.407165
 20
294.093269
 30
0.0
 10
440.345424
 20
294.093269
 30
0.0
 10
417.283682
 20
294.093269
 30
0.0
  0
SPLINE
  5
118
100
AcDbEntity
  8
Layer_1
 62
7
100
AcDbSpline
 70
8
 71
3
 72
8
 73
4
 74
0
 40
0
 40
0
 40
0
 40
0
 40
1
 40
1
 40
1
 40
1
 10
71.588169
 20
483.326391
 30
0.0
 10
77.903779
 20
484.165899
 30
0.0
 10
90.539169
 20
484.570828
 30
0.0
 10
109.640044
 20
484.545798
 30
0.0
  0
SPLINE
  5
119
100
AcDbEntity
  8
Layer_1
 62
7
100
AcDbSpline
 70
8
 71
3
 72
8
 73
4
 74
0
 40
0
 40
0
 40
0
 40
0
 40
1
 40
1
 40
1
 40
1
 10
109.640044
 20
484.545798
 30
0.0
 10
136.304671
 20
484.510932
 30
0.0
 10
138.735176
 20
484.369767
 30
0.0
 10
145.616366
 20
482.456721
 30
0.0
  0
SPLINE
  5
11a
100
AcDbEntity
  8
Layer_1
 62
7
100
AcDbSpline
 70
8
 71
3
 72
8
 73
4
 74
0
 40
0
 40
0
 40
0
 40
0
 40
1
 40
1
 40
1
 40
1
 10
145.616366
 20
482.456721
 30
0.0
 10
164.112982
 20
477.314476
 30
0.0
 10
174.547987
 20
468.341717
 30
0.0
 10
180.758599
 20
452.238860
 30
0.0
  0
SPLINE
  5
11b
100
AcDbEntity
  8
Layer_1
 62
7
100
AcDbSpline
 70
8
 71
3
 72
8
 73
4
 74
0
 40
0
 40
0
 40
0
 40
0
 40
1
 40
1
 40
1
 40
1
 10
180.758599
 20
452.238860
 30
0.0
 10
182.245277
 20
448.384224
 30
0.0
 10
182.515156
 20
445.204205
 30
0.0
 10
182.515156
 20
431.541241
 30
0.0
  0
SPLINE
  5
11c
100
AcDbEntity
  8
Layer_1
 62
7
100
AcDbSpline
 70
8
 71
3
 72
8
 73
4
 74
0
 40
0
 40
0
 40
0
 40
0
 40
1
 40
1
 40
1
 40
1
 10
182.515156
 20
431.541241
 30
0.0
 10
182.515156
 20
416.029918
 30
0.0
 10
182.420053
 20
415.195228
 30
0.0
 10
180.085723
 20
410.216854
 30
0.0
  0
SPLINE
  5
11d
100
AcDbEntity
  8
Layer_1
 62
7
100
AcDbSpline
 70
8
 71
3
 72
8
 73
4
 74
0
 40
0
 40
0
 40
0
 40
0
 40
1
 40
1
 40
1
 40
1
 10
180.085723
 20
410.216854
 30
0.0
 10
175.398384
 20
400.220334
 30
0.0
 10
167.145177
 20
390.368296
 30
0.0
 10
160.204303
 20
386.484009
 30
0.0
  0
SPLINE
  5
11e
100
AcDbEntity
  8
Layer_1
 62
7
100
AcDbSpline
 70
8
 71
3
 72
8
 73
4
 74
0
 40
0
 40
0
 40
0
 40
0
 40
1
 40
1
 40
1
 40
1
 10
160.204303
 20
386.484009
 30
0.0
 10
159.025348
 20
385.824217
 30
0.0
 10
159.485238
 20
384.972945
 30
0.0
 10
162.826404
 20
381.630331
 30
0.0
  0
SPLINE
  5
11f
100
AcDbEntity
  8
Layer_1
 62
7
100
AcDbSpline
 70
8
 71
3
 72
8
 73
4
 74
0
 40
0
 40
0
 40
0
 40
0
 40
1
 40
1
 40
1
 40
1
 10
162.826404
 20
381.630331
 30
0.0
 10
169.934644
 20
374.519027
 30
0.0
 10
174.019348
 20
364.364220
 30
0.0
 10
180.226860
 20
338.371795
 30
0.0
  0
SPLINE
  5
120
100
AcDbEntity
  8
Layer_1
 62
7
100
AcDbSpline
 70
8
 71
3
 72
8
 73
4
 74
0
 40
0
 40
0
 40
0
 40
0
 40
1
 40
1
 40
1
 40
1
 10
180.226860
 20
338.371795
 30
0.0
 10
181.377952
 20
333.551906
 30
0.0
 10
183.773018
 20
324.211890
 30
0.0
 10
185.549224
 20
317.616236
 30
0.0
  0
SPLINE
  5
121
100
AcDbEntity
  8
Layer_1
 62
7
100
AcDbSpline
 70
8
 71
3
 72
8
 73
4
 74
0
 40
0
 40
0
 40
0
 40
0
 40
1
 40
1
 40
1
 40
1
 10
185.549224
 20
317.616236
 30
0.0
 10
187.325430
 20
311.020583
 30
0.0
 10
188.969666
 20
304.067452
 30
0.0
 10
189.203080
 20
302.164866
 30
0.0
  0
LWPOLYLINE
  5
122
100
AcDbEntity
  8
Layer_1
 62
7
100
AcDbPolyline
 90
3
 70
0
 10
62.132854
 20
390.387572
 30
0.0
 10
62.132854
 20
482.069537
 30
0.0
 10
71.588169
 20
483.326391
 30
0.0
  0
SPLINE
  5
123
100
AcDbEntity
  8
Layer_1
 62
7
100
AcDbSpline
 70
8
 71
3
 72
8
 73
4
 74
0
 40
0
 40
0
 40
0
 40
0
 40
1
 40
1
 40
1
 40
1
 10
145.645710
 20
301.703641
 30
0.0
 10
144.061736
 20
305.288957
 30
0.0
 10
135.929835
 20
336.254854
 30
0.0
 10
135.930183
 20
338.699906
 30
0.0
  0
SPLINE
  5
124
100
AcDbEntity
  8
Layer_1
 62
7
100
AcDbSpline
 70
8
 71
3
 72
8
 73
4
 74
0
 40
0
 40
0
 40
0
 40
0
 40
1
 40
1
 40
1
 40
1
 10
135.930183
 20
338.699906
 30
0.0
 10
135.930645
 20
341.882107
 30
0.0
 10
133.023342
 20
351.719433
 30
0.0
 10
130.710980
 20
356.359975
 30
0.0
  0
SPLINE
  5
125
100
AcDbEntity
  8
Layer_1
 62
7
100
AcDbSpline
 70
8
 71
3
 72
8
 73
4
 74
0
 40
0
 40
0
 40
0
 40
0
 40
1
 40
1
 40
1
 40
1
 10
130.710980
 20
356.359975
 30
0.0
 10
126.221006
 20
365.370576
 30
0.0
 10
121.637602
 20
368.206753
 30
0.0
 10
109.870662
 20
369.255827
 30
0.0
  0
LWPOLYLINE
  5
126
100
AcDbEntity
  8
Layer_1
 62
7
100
AcDbPolyline
 90
5
 70
0
 10
189.203080
 20
302.164866
 30
0.0
 10
189.627463
 20
298.705606
 30
0.0
 10
168.298846
 20
298.705606
 30
0.0
 10
146.970218
 20
298.705606
 30
0.0
 10
145.645710
 20
301.703641
 30
0.0
  0
SPLINE
  5
127
100
AcDbEntity
  8
Layer_1
 62
7
100
AcDbSpline
 70
8
 71
3
 72
8
 73
4
 74
0
 40
0
 40
0
 40
0
 40
0
 40
1
 40
1
 40
1
 40
1
 10
126.502367
 20
405.887811
 30
0.0
 10
139.480262
 20
410.743446
 30
0.0
 10
145.251666
 20
425.425606
 30
0.0
 10
139.063711
 20
437.843225
 30
0.0
  0
SPLINE
  5
128
100
AcDbEntity
  8
Layer_1
 62
7
100
AcDbSpline
 70
8
 71
3
 72
8
 73
4
 74
0
 40
0
 40
0
 40
0
 40
0
 40
1
 40
1
 40
1
 40
1
 10
139.063711
 20
437.843225
 30
0.0
 10
134.813183
 20
446.372901
 30
0.0
 10
127.602533
 20
449.997874
 30
0.0
 10
114.925575
 20
449.978060
 30
0.0
  0
SPLINE
  5
129
100
AcDbEntity
  8
Layer_1
 62
7
100
AcDbSpline
 70
8
 71
3
 72
8
 73
4
 74
0
 40
0
 40
0
 40
0
 40
0
 40
1
 40
1
 40
1
 40
1
 10
114.925575
 20
449.978060
 30
0.0
 10
110.496455
 20
449.969556
 30
0.0
 10
105.938634
 20
449.715005
 30
0.0
 10
104.797080
 20
449.409232
 30
0.0
  0
LWPOLYLINE
  5
12a
100
AcDbEntity
  8
Layer_1
 62
7
100
AcDbPolyline
 90
7
 70
0
 10
109.870662
 20
369.255827
 30
0.0
 10
102.721521
 20
369.893197
 30
0.0
 10
102.721521
 20
334.299402
 30
0.0
 10
102.721521
 20
298.705606
 30
0.0
 10
82.427187
 20
298.705606
 30
0.0
 10
62.132854
 20
298.705606
 30
0.0
 10
62.132854
 20
390.387572
 30
0.0
  0
SPLINE
  5
12b
100
AcDbEntity
  8
Layer_1
 62
7
100
AcDbSpline
 70
8
 71
3
 72
8
 73
4
 74
0
 40
0
 40
0
 40
0
 40
0
 40
1
 40
1
 40
1
 40
1
 10
112.147319
 20
403.375266
 30
0.0
 10
117.775528
 20
403.774299
 30
0.0
 10
123.559081
 20
404.786580
 30
0.0
 10
126.502367
 20
405.887811
 30
0.0
  0
LWPOLYLINE
  5
12c
100
AcDbEntity
  8
Layer_1
 62
7
100
AcDbPolyline
 90
5
 70
0
 10
104.797080
 20
449.409232
 30
0.0
 10
102.721521
 20
448.852989
 30
0.0
 10
102.721521
 20
425.780022
 30
0.0
 10
102.721521
 20
402.707027
 30
0.0
 10
112.147319
 20
403.375266
 30
0.0
  0
LWPOLYLINE
  5
12d
100
AcDbEntity
  8
Layer_1
 62
7
100
AcDbPolyline
 90
1
 70
1
 10
126.502367
 20
405.887811
 30
0.0
  0
SPLINE
  5
12e
100
AcDbEntity
  8
Layer_1
 62
7
100
AcDbSpline
 70
8
 71
3
 72
8
 73
4
 74
0
 40
0
 40
0
 40
0
 40
0
 40
1
 40
1
 40
1
 40
1
 10
202.348256
 20
503.610435
 30
0.0
 10
202.348256
 20
505.703991
 30
0.0
 10
203.542920
 20
511.619329
 30
0.0
 10
205.003060
 20
516.755650
 30
0.0
  0
SPLINE
  5
12f
100
AcDbEntity
  8
Layer_1
 62
7
100
AcDbSpline
 70
8
 71
3
 72
8
 73
4
 74
0
 40
0
 40
0
 40
0
 40
0
 40
1
 40
1
 40
1
 40
1
 10
205.003060
 20
516.755650
 30
0.0
 10
206.463209
 20
521.891972
 30
0.0
 10
209.190869
 20
531.905953
 30
0.0
 10
211.064545
 20
539.008980
 30
0.0
  0
SPLINE
  5
130
100
AcDbEntity
  8
Layer_1
 62
7
100
AcDbSpline
 70
8
 71
3
 72
8
 73
4
 74
0
 40
0
 40
0
 40
0
 40
0
 40
1
 40
1
 40
1
 40
1
 10
211.064545
 20
539.008980
 30
0.0
 10
212.938209
 20
546.111978
 30
0.0
 10
215.637004
 20
556.282233
 30
0.0
 10
217.061861
 20
561.609485
 30
0.0
  0
SPLINE
  5
131
100
AcDbEntity
  8
Layer_1
 62
7
100
AcDbSpline
 70
8
 71
3
 72
8
 73
4
 74
0
 40
0
 40
0
 40
0
 40
0
 40
1
 40
1
 40
1
 40
1
 10
217.061861
 20
561.609485
 30
0.0
 10
218.486716
 20
566.936748
 30
0.0
 10
221.198281
 20
577.106974
 30
0.0
 10
223.087572
 20
584.209973
 30
0.0
  0
SPLINE
  5
132
100
AcDbEntity
  8
Layer_1
 62
7
100
AcDbSpline
 70
8
 71
3
 72
8
 73
4
 74
0
 40
0
 40
0
 40
0
 40
0
 40
1
 40
1
 40
1
 40
1
 10
223.087572
 20
584.209973
 30
0.0
 10
224.976869
 20
591.313000
 30
0.0
 10
227.963310
 20
602.520990
 30
0.0
 10
229.724164
 20
609.116672
 30
0.0
  0
SPLINE
  5
133
100
AcDbEntity
  8
Layer_1
 62
7
100
AcDbSpline
 70
8
 71
3
 72
8
 73
4
 74
0
 40
0
 40
0
 40
0
 40
0
 40
1
 40
1
 40
1
 40
1
 10
229.724164
 20
609.116672
 30
0.0
 10
235.408876
 20
630.410049
 30
0.0
 10
239.011824
 20
643.937375
 30
0.0
 10
241.886154
 20
654.778930
 30
0.0
  0
SPLINE
  5
134
100
AcDbEntity
  8
Layer_1
 62
7
100
AcDbSpline
 70
8
 71
3
 72
8
 73
4
 74
0
 40
0
 40
0
 40
0
 40
0
 40
1
 40
1
 40
1
 40
1
 10
241.886154
 20
654.778930
 30
0.0
 10
244.844504
 20
665.937513
 30
0.0
 10
250.110680
 20
685.475308
 30
0.0
 10
250.899364
 20
688.218452
 30
0.0
  0
SPLINE
  5
135
100
AcDbEntity
  8
Layer_1
 62
7
100
AcDbSpline
 70
8
 71
3
 72
8
 73
4
 74
0
 40
0
 40
0
 40
0
 40
0
 40
1
 40
1
 40
1
 40
1
 10
250.899364
 20
688.218452
 30
0.0
 10
251.327594
 20
689.708001
 30
0.0
 10
253.425345
 20
689.832782
 30
0.0
 10
278.035356
 20
689.832782
 30
0.0
  0
LWPOLYLINE
  5
136
100
AcDbEntity
  8
Layer_1
 62
7
100
AcDbPolyline
 90
24
 70
1
 10
62.132854
 20
594.818379
 30
0.0
 10
62.132854
 20
689.832782
 30
0.0
 10
121.632151
 20
689.832782
 30
0.0
 10
181.131452
 20
689.832782
 30
0.0
 10
181.131452
 20
670.460927
 30
0.0
 10
181.131452
 20
651.089044
 30
0.0
 10
144.693896
 20
651.089044
 30
0.0
 10
108.256340
 20
651.089044
 30
0.0
 10
108.256340
 20
634.023371
 30
0.0
 10
108.256340
 20
616.957642
 30
0.0
 10
142.848955
 20
616.957642
 30
0.0
 10
177.441574
 20
616.957642
 30
0.0
 10
177.441574
 20
597.585787
 30
0.0
 10
177.441574
 20
578.213932
 30
0.0
 10
142.848955
 20
578.213932
 30
0.0
 10
108.256340
 20
578.213932
 30
0.0
 10
108.256340
 20
558.380835
 30
0.0
 10
108.256340
 20
538.547726
 30
0.0
 10
147.000070
 20
538.547726
 30
0.0
 10
185.743800
 20
538.547726
 30
0.0
 10
185.743800
 20
519.175871
 30
0.0
 10
185.743800
 20
499.804016
 30
0.0
 10
123.938325
 20
499.804016
 30
0.0
 10
62.132854
 20
499.804016
 30
0.0
  0
SPLINE
  5
137
100
AcDbEntity
  8
Layer_1
 62
7
100
AcDbSpline
 70
8
 71
3
 72
8
 73
4
 74
0
 40
0
 40
0
 40
0
 40
0
 40
1
 40
1
 40
1
 40
1
 10
305.292472
 20
687.296001
 30
0.0
 10
305.614375
 20
685.900760
 30
0.0
 10
307.299515
 20
679.570316
 30
0.0
 10
309.037238
 20
673.228335
 30
0.0
  0
SPLINE
  5
138
100
AcDbEntity
  8
Layer_1
 62
7
100
AcDbSpline
 70
8
 71
3
 72
8
 73
4
 74
0
 40
0
 40
0
 40
0
 40
0
 40
1
 40
1
 40
1
 40
1
 10
309.037238
 20
673.228335
 30
0.0
 10
312.165411
 20
661.811686
 30
0.0
 10
316.002813
 20
647.627460
 30
0.0
 10
321.515461
 20
627.104823
 30
0.0
  0
SPLINE
  5
139
100
AcDbEntity
  8
Layer_1
 62
7
100
AcDbSpline
 70
8
 71
3
 72
8
 73
4
 74
0
 40
0
 40
0
 40
0
 40
0
 40
1
 40
1
 40
1
 40
1
 10
321.515461
 20
627.104823
 30
0.0
 10
323.082709
 20
621.270187
 30
0.0
 10
325.720035
 20
611.515094
 30
0.0
 10
327.376205
 20
605.426786
 30
0.0
  0
SPLINE
  5
13a
100
AcDbEntity
  8
Layer_1
 62
7
100
AcDbSpline
 70
8
 71
3
 72
8
 73
4
 74
0
 40
0
 40
0
 40
0
 40
0
 40
1
 40
1
 40
1
 40
1
 10
327.376205
 20
605.426786
 30
0.0
 10
329.032346
 20
599.338477
 30
0.0
 10
331.894148
 20
588.753145
 30
0.0
 10
333.735704
 20
581.903819
 30
0.0
  0
SPLINE
  5
13b
100
AcDbEntity
  8
Layer_1
 62
7
100
AcDbSpline
 70
8
 71
3
 72
8
 73
4
 74
0
 40
0
 40
0
 40
0
 40
0
 40
1
 40
1
 40
1
 40
1
 10
333.735704
 20
581.903819
 30
0.0
 10
342.189298
 20
550.462535
 30
0.0
 10
347.977644
 20
529.142825
 30
0.0
 10
351.689981
 20
515.774721
 30
0.0
  0
SPLINE
  5
13c
100
AcDbEntity
  8
Layer_1
 62
7
100
AcDbSpline
 70
8
 71
3
 72
8
 73
4
 74
0
 40
0
 40
0
 40
0
 40
0
 40
1
 40
1
 40
1
 40
1
 10
351.689981
 20
515.774721
 30
0.0
 10
353.266157
 20
510.098910
 30
0.0
 10
354.555751
 20
504.183572
 30
0.0
 10
354.555751
 20
502.629534
 30
0.0
  0
LWPOLYLINE
  5
13d
100
AcDbEntity
  8
Layer_1
 62
7
100
AcDbPolyline
 90
3
 70
0
 10
278.035356
 20
689.832782
 30
0.0
 10
304.707232
 20
689.832782
 30
0.0
 10
305.292472
 20
687.296001
 30
0.0
  0
SPLINE
  5
13e
100
AcDbEntity
  8
Layer_1
 62
7
100
AcDbSpline
 70
8
 71
3
 72
8
 73
4
 74
0
 40
0
 40
0
 40
0
 40
0
 40
1
 40
1
 40
1
 40
1
 10
308.579046
 20
506.030683
 30
0.0
 10
306.822331
 20
512.276740
 30
0.0
 10
306.211068
 20
514.629269
 30
0.0
 10
300.909005
 20
535.549720
 30
0.0
  0
LWPOLYLINE
  5
13f
100
AcDbEntity
  8
Layer_1
 62
7
100
AcDbPolyline
 90
5
 70
0
 10
354.555751
 20
502.629534
 30
0.0
 10
354.555751
 20
499.804016
 30
0.0
 10
332.443020
 20
499.804016
 30
0.0
 10
310.330290
 20
499.804016
 30
0.0
 10
308.579046
 20
506.030683
 30
0.0
  0
SPLINE
  5
140
100
AcDbEntity
  8
Layer_1
 62
7
100
AcDbSpline
 70
8
 71
3
 72
8
 73
4
 74
0
 40
0
 40
0
 40
0
 40
0
 40
1
 40
1
 40
1
 40
1
 10
252.721134
 20
531.852945
 30
0.0
 10
250.745754
 20
523.610816
 30
0.0
 10
248.588872
 20
514.791694
 30
0.0
 10
247.928060
 20
512.254885
 30
0.0
  0
SPLINE
  5
141
100
AcDbEntity
  8
Layer_1
 62
7
100
AcDbSpline
 70
8
 71
3
 72
8
 73
4
 74
0
 40
0
 40
0
 40
0
 40
0
 40
1
 40
1
 40
1
 40
1
 10
247.928060
 20
512.254885
 30
0.0
 10
247.267247
 20
509.718104
 30
0.0
 10
246.273024
 20
505.878321
 30
0.0
 10
245.718680
 20
503.722063
 30
0.0
  0
LWPOLYLINE
  5
142
100
AcDbEntity
  8
Layer_1
 62
7
100
AcDbPolyline
 90
5
 70
0
 10
300.909005
 20
535.549720
 30
0.0
 10
298.045077
 20
546.849978
 30
0.0
 10
277.178896
 20
546.844309
 30
0.0
 10
256.312729
 20
546.838639
 30
0.0
 10
252.721134
 20
531.852945
 30
0.0
  0
SPLINE
  5
143
100
AcDbEntity
  8
Layer_1
 62
7
100
AcDbSpline
 70
8
 71
3
 72
8
 73
4
 74
0
 40
0
 40
0
 40
0
 40
0
 40
1
 40
1
 40
1
 40
1
 10
290.637978
 20
584.901825
 30
0.0
 10
283.508929
 20
615.572719
 30
0.0
 10
276.434632
 20
642.261504
 30
0.0
 10
275.905885
 20
640.480666
 30
0.0
  0
SPLINE
  5
144
100
AcDbEntity
  8
Layer_1
 62
7
100
AcDbSpline
 70
8
 71
3
 72
8
 73
4
 74
0
 40
0
 40
0
 40
0
 40
0
 40
1
 40
1
 40
1
 40
1
 10
275.905885
 20
640.480666
 30
0.0
 10
275.604619
 20
639.465948
 30
0.0
 10
275.081343
 20
636.767705
 30
0.0
 10
274.743085
 20
634.484597
 30
0.0
  0
SPLINE
  5
145
100
AcDbEntity
  8
Layer_1
 62
7
100
AcDbSpline
 70
8
 71
3
 72
8
 73
4
 74
0
 40
0
 40
0
 40
0
 40
0
 40
1
 40
1
 40
1
 40
1
 10
274.743085
 20
634.484597
 30
0.0
 10
274.073683
 20
629.966738
 30
0.0
 10
270.417784
 20
614.285507
 30
0.0
 10
265.549054
 20
595.049006
 30
0.0
  0
LWPOLYLINE
  5
146
100
AcDbEntity
  8
Layer_1
 62
7
100
AcDbPolyline
 90
6
 70
0
 10
245.718680
 20
503.722063
 30
0.0
 10
244.710765
 20
499.801550
 30
0.0
 10
223.529508
 20
499.801550
 30
0.0
 10
202.348256
 20
499.801550
 30
0.0
 10
202.348256
 20
503.607997
 30
0.0
 10
202.348256
 20
503.610435
 30
0.0
  0
LWPOLYLINE
  5
147
100
AcDbEntity
  8
Layer_1
 62
7
100
AcDbPolyline
 90
5
 70
0
 10
265.549054
 20
595.049006
 30
0.0
 10
262.455548
 20
582.826269
 30
0.0
 10
276.787970
 20
582.826269
 30
0.0
 10
291.120406
 20
582.826269
 30
0.0
 10
290.637978
 20
584.901825
 30
0.0
  0
SPLINE
  5
148
100
AcDbEntity
  8
Layer_1
 62
7
100
AcDbSpline
 70
8
 71
3
 72
8
 73
4
 74
0
 40
0
 40
0
 40
0
 40
0
 40
1
 40
1
 40
1
 40
1
 10
380.036580
 20
594.818379
 30
0.0
 10
392.971861
 20
616.543982
 30
0.0
 10
396.007937
 20
621.586987
 30
0.0
 10
407.249320
 20
640.019412
 30
0.0
  0
SPLINE
  5
149
100
AcDbEntity
  8
Layer_1
 62
7
100
AcDbSpline
 70
8
 71
3
 72
8
 73
4
 74
0
 40
0
 40
0
 40
0
 40
0
 40
1
 40
1
 40
1
 40
1
 10
407.249320
 20
640.019412
 30
0.0
 10
412.045370
 20
647.883485
 30
0.0
 10
420.673181
 20
662.308600
 30
0.0
 10
426.422239
 20
672.075230
 30
0.0
  0
LWPOLYLINE
  5
14a
100
AcDbEntity
  8
Layer_1
 62
7
100
AcDbPolyline
 90
7
 70
0
 10
449.570126
 20
521.943279
 30
0.0
 10
449.570126
 20
544.082570
 30
0.0
 10
409.442683
 20
544.082570
 30
0.0
 10
369.315241
 20
544.082570
 30
0.0
 10
369.320910
 20
560.456379
 30
0.0
 10
369.326580
 20
576.830228
 30
0.0
 10
380.036580
 20
594.818379
 30
0.0
  0
LWPOLYLINE
  5
14b
100
AcDbEntity
  8
Layer_1
 62
7
100
AcDbPolyline
 90
18
 70
0
 10
426.422239
 20
672.075230
 30
0.0
 10
436.875052
 20
689.832782
 30
0.0
 10
465.361909
 20
689.832782
 30
0.0
 10
493.848794
 20
689.832782
 30
0.0
 10
493.848794
 20
635.868300
 30
0.0
 10
493.848794
 20
581.903819
 30
0.0
 10
504.457172
 20
581.903819
 30
0.0
 10
515.065578
 20
581.903819
 30
0.0
 10
515.065578
 20
562.993189
 30
0.0
 10
515.065578
 20
544.082570
 30
0.0
 10
504.457172
 20
544.082570
 30
0.0
 10
493.848794
 20
544.082570
 30
0.0
 10
493.848794
 20
521.943279
 30
0.0
 10
493.848794
 20
499.804016
 30
0.0
 10
471.709502
 20
499.804016
 30
0.0
 10
449.570239
 20
499.804016
 30
0.0
 10
449.570239
 20
521.943279
 30
0.0
 10
449.570126
 20
521.943279
 30
0.0
  0
SPLINE
  5
14c
100
AcDbEntity
  8
Layer_1
 62
7
100
AcDbSpline
 70
8
 71
3
 72
8
 73
4
 74
0
 40
0
 40
0
 40
0
 40
0
 40
1
 40
1
 40
1
 40
1
 10
444.633506
 20
632.178414
 30
0.0
 10
441.954227
 20
626.597450
 30
0.0
 10
434.646850
 20
613.313904
 30
0.0
 10
428.394841
 20
602.659378
 30
0.0
  0
SPLINE
  5
14d
100
AcDbEntity
  8
Layer_1
 62
7
100
AcDbSpline
 70
8
 71
3
 72
8
 73
4
 74
0
 40
0
 40
0
 40
0
 40
0
 40
1
 40
1
 40
1
 40
1
 10
428.394841
 20
602.659378
 30
0.0
 10
422.142860
 20
592.004852
 30
0.0
 10
416.853156
 20
582.976165
 30
0.0
 10
416.639962
 20
582.595671
 30
0.0
  0
SPLINE
  5
14e
100
AcDbEntity
  8
Layer_1
 62
7
100
AcDbSpline
 70
8
 71
3
 72
8
 73
4
 74
0
 40
0
 40
0
 40
0
 40
0
 40
1
 40
1
 40
1
 40
1
 10
416.639962
 20
582.595671
 30
0.0
 10
416.426797
 20
582.215148
 30
0.0
 10
423.748828
 20
581.903819
 30
0.0
 10
432.911225
 20
581.903819
 30
0.0
  0
LWPOLYLINE
  5
14f
100
AcDbEntity
  8
Layer_1
 62
7
100
AcDbPolyline
 90
3
 70
0
 10
449.537528
 20
612.114678
 30
0.0
 10
449.504929
 20
642.325595
 30
0.0
 10
444.633506
 20
632.178414
 30
0.0
  0
LWPOLYLINE
  5
150
100
AcDbEntity
  8
Layer_1
 62
7
100
AcDbPolyline
 90
4
 70
0
 10
432.911225
 20
581.903819
 30
0.0
 10
449.570069
 20
581.903819
 30
0.0
 10
449.537471
 20
612.114678
 30
0.0
 10
449.537528
 20
612.114678
 30
0.0
  0
LWPOLYLINE
  5
151
100
AcDbEntity
  8
Layer_1
 62
7
100
AcDbPolyline
 90
8
 70
1
 10
62.132854
 20
716.584411
 30
0.0
 10
62.132854
 20
733.188858
 30
0.0
 10
288.599159
 20
733.188858
 30
0.0
 10
515.065465
 20
733.188858
 30
0.0
 10
515.065465
 20
716.584411
 30
0.0
 10
515.065465
 20
699.979963
 30
0.0
 10
288.599159
 20
699.979963
 30
0.0
 10
62.132854
 20
699.979963
 30
0.0
  0
ENDSEC
  0
SECTION
  2
OBJECTS
  0
DICTIONARY
  5
C
330
0
100
AcDbDictionary
  3
ACAD_GROUP
350
D
  3
ACAD_MLINESTYLE
350
17
  0
DICTIONARY
  5
D
330
C
100
AcDbDictionary
  0
DICTIONARY
  5
1A
330
C
100
AcDbDictionary
  0
DICTIONARY
  5
17
330
C
100
AcDbDictionary
  3
STANDARD
350
18
  0
DICTIONARY
  5
19
330
C
100
AcDbDictionary
  0
ENDSEC
  0
EOF
