<?xml version="1.0" encoding="UTF-8" standalone="no"?>
<!-- Created with Inkscape (http://www.inkscape.org/) -->

<svg
   xmlns:dc="http://purl.org/dc/elements/1.1/"
   xmlns:cc="http://creativecommons.org/ns#"
   xmlns:rdf="http://www.w3.org/1999/02/22-rdf-syntax-ns#"
   xmlns:svg="http://www.w3.org/2000/svg"
   xmlns="http://www.w3.org/2000/svg"
   xmlns:sodipodi="http://sodipodi.sourceforge.net/DTD/sodipodi-0.dtd"
   xmlns:inkscape="http://www.inkscape.org/namespaces/inkscape"
   width="210mm"
   height="297mm"
   viewBox="0 0 210 297"
   version="1.1"
   id="svg8"
   inkscape:version="0.92.4 (unknown)"
   sodipodi:docname="letras_peq.svg">
  <defs
     id="defs2" />
  <sodipodi:namedview
     id="base"
     pagecolor="#867f00"
     bordercolor="#666666"
     borderopacity="1.0"
     inkscape:pageopacity="1"
     inkscape:pageshadow="2"
     inkscape:zoom="0.79214709"
     inkscape:cx="297.02017"
     inkscape:cy="619.21275"
     inkscape:document-units="mm"
     inkscape:current-layer="layer1"
     showgrid="false"
     inkscape:window-width="1920"
     inkscape:window-height="1016"
     inkscape:window-x="0"
     inkscape:window-y="219"
     inkscape:window-maximized="1" />
  <metadata
     id="metadata5">
    <rdf:RDF>
      <cc:Work
         rdf:about="">
        <dc:format>image/svg+xml</dc:format>
        <dc:type
           rdf:resource="http://purl.org/dc/dcmitype/StillImage" />
        <dc:title></dc:title>
      </cc:Work>
    </rdf:RDF>
  </metadata>
  <g
     inkscape:label="Layer 1"
     inkscape:groupmode="layer"
     id="layer1">
    <path
       style="fill:#ffffff;stroke-width:0.32542682"
       d="m 21.91909,203.33867 v -5.85769 h 79.89228 79.89228 v 5.85769 5.85768 H 101.81137 21.91909 Z m 75.987155,-9.96537 c -12.523175,-2.25884 -21.111903,-9.49888 -24.659788,-20.78747 -1.346749,-4.28506 -1.632646,-6.98 -1.455432,-13.71926 0.136699,-5.19847 0.287944,-6.61253 0.993694,-9.29031 3.43325,-13.02659 13.207681,-21.72551 27.152453,-24.16476 3.764448,-0.6585 13.204068,-0.66617 17.225108,-0.014 1.64158,0.26625 4.1677,0.8578 5.61361,1.31456 2.18198,0.68929 2.62892,0.94581 2.62892,1.50888 0,1.40493 -3.09354,12.71941 -3.52269,12.88409 -0.24142,0.0926 -1.92726,-0.28991 -3.74631,-0.85011 -4.42995,-1.36427 -8.27893,-1.80494 -11.71147,-1.34086 -8.494195,1.1484 -13.895875,5.55448 -16.544735,13.49531 -0.662275,1.9854 -0.759345,2.90497 -0.755745,7.15939 0.004,4.50752 0.074,5.07986 0.915755,7.47241 1.06915,3.03865 3.27698,6.50698 5.20073,8.16992 5.465995,4.72494 13.727545,6.08147 22.354225,3.6705 1.34238,-0.37517 2.9499,-0.70043 3.57226,-0.72281 l 1.13156,-0.0407 1.05855,5.36954 c 0.5822,2.95325 1.02487,5.94979 0.98371,6.65899 l -0.0748,1.28944 -2.32278,0.72569 c -1.27753,0.39913 -3.85906,0.95381 -5.73674,1.23262 -4.38321,0.65084 -14.64039,0.63903 -18.300055,-0.0211 z m 49.302165,-26.64515 v -26.52229 h -8.94924 -8.94924 v -7.15939 -7.15939 h 26.19686 26.19686 v 7.15939 7.15939 h -9.11195 -9.11195 v 26.52229 26.52228 h -8.13567 -8.13567 z M 21.91909,159.27994 v -32.34336 l 3.335625,-0.44339 c 2.228007,-0.29616 6.685492,-0.43901 13.423856,-0.43018 9.406688,0.0123 10.264116,0.0621 12.691647,0.73698 6.525195,1.81407 10.206433,4.97946 12.397399,10.66019 0.524467,1.35983 0.619674,2.48167 0.619674,7.30166 0,5.47205 -0.03355,5.76651 -0.85705,7.52277 -1.653589,3.52655 -4.565137,7.00213 -7.013723,8.37242 -0.415909,0.23276 -0.25367,0.53307 0.925019,1.71227 2.507629,2.50871 3.948622,6.0911 6.138494,15.26065 0.40608,1.70035 1.251006,4.9953 1.877612,7.3221 0.626606,2.3268 1.206656,4.77971 1.288999,5.4509 l 0.149713,1.22035 h -7.524262 -7.524266 l -0.467257,-1.05764 c -0.558791,-1.26482 -3.427545,-12.1889 -3.427422,-13.05146 1.63e-4,-1.12261 -1.025469,-4.593 -1.841219,-6.23008 -1.583963,-3.17874 -3.200886,-4.17928 -7.352001,-4.54937 L 36.23787,166.5099 v 12.5567 12.5567 h -7.15939 -7.15939 z m 22.708134,-5.46814 c 4.578313,-1.71296 6.614336,-6.8925 4.431363,-11.27316 -1.499492,-3.00908 -4.043249,-4.28789 -8.515398,-4.2809 -1.562495,0.003 -3.170393,0.0928 -3.573108,0.20067 l -0.732211,0.19623 v 8.13963 8.13964 l 3.325212,-0.23574 c 1.985507,-0.14077 4.025816,-0.49788 5.064142,-0.88637 z M 21.91909,87.161294 v -33.51897 h 20.99003 20.990031 v 6.83396 6.83397 h -12.85436 -12.85436 v 6.02039 6.02041 h 12.203506 12.203507 v 6.83396 6.83396 H 50.393937 38.190431 v 6.996676 6.99668 h 13.667927 13.667927 v 6.83396 6.83396 H 43.722687 21.91909 Z m 49.464878,32.176136 c 0,-0.73856 0.421451,-2.82536 0.936556,-4.63734 0.515108,-1.81198 1.477366,-5.34469 2.138357,-7.85048 0.660987,-2.50578 1.613062,-6.09362 2.11572,-7.972956 0.502657,-1.87934 1.459237,-5.46717 2.125737,-7.97295 0.666502,-2.50579 1.720052,-6.45972 2.341242,-8.78653 2.00544,-7.51183 3.27648,-12.28397 4.29048,-16.10863 1.04364,-3.9365 2.90143,-10.829 3.17966,-11.79672 0.15107,-0.52548 0.89111,-0.5695 9.572975,-0.5695 h 9.409245 l 0.20646,0.89492 c 0.11356,0.49221 0.70804,2.72545 1.32107,4.96276 1.10355,4.02754 2.4573,9.03142 4.40204,16.27135 0.55289,2.05833 1.48328,5.49971 2.06754,7.64753 0.58425,2.14782 1.59383,5.88209 2.24349,8.29838 2.98224,11.091786 5.02424,18.612906 6.33387,23.328876 0.55604,2.0023 1.01098,4.0891 1.01098,4.63733 v 0.99678 h -7.80088 -7.80088 l -0.6178,-2.19663 c -0.61973,-2.20347 -0.83537,-3.03339 -2.70582,-10.41366 l -1.01033,-3.98648 -7.361125,0.002 -7.36112,0.002 -1.267035,5.28662 c -0.69687,2.90764 -1.45777,6.01883 -1.69089,6.91376 -0.23312,0.89492 -0.58386,2.24951 -0.77942,3.01019 l -0.35557,1.38307 h -7.472277 -7.472275 v -1.34283 z M 102.53062,90.659634 c -2.51497,-10.82001 -5.010625,-20.23522 -5.197155,-19.60698 -0.10628,0.35797 -0.29088,1.30985 -0.41021,2.11528 -0.23615,1.5938 -1.52587,7.12579 -3.24345,13.912 l -1.09132,4.31191 h 5.05616 5.056165 z m 56.06773,22.210376 v -7.81025 h -14.15607 -14.15607 l 0.002,-5.776316 0.002,-5.77633 3.77825,-6.34582 c 4.56328,-7.66431 5.63434,-9.44337 9.60005,-15.94592 1.69194,-2.77427 4.73564,-7.86313 6.76378,-11.30858 l 3.68752,-6.26447 h 10.04953 10.04954 v 19.03747 19.03747 h 3.7424 3.74241 v 6.67125 6.671246 h -3.74241 -3.7424 v 7.81025 7.81024 h -7.81025 -7.81024 v -7.81024 z m -0.0115,-31.810466 -0.0115,-10.65774 -1.71853,3.5797 c -0.94519,1.96884 -3.52307,6.65498 -5.72864,10.41366 -2.20556,3.75868 -4.07165,6.9438 -4.14686,7.07803 -0.0752,0.13424 2.50785,0.24407 5.74014,0.24407 h 5.87687 l -0.0115,-10.65772 z M 21.91909,44.204944 v -5.85768 h 79.89228 79.89228 v 5.85768 5.85768 H 101.81137 21.91909 Z"
       id="path838"
       inkscape:connector-curvature="0" />
  </g>
</svg>
